<?xml version="1.0" encoding="utf-8"?>
<!-- Generator: Adobe Illustrator 23.0.0, SVG Export Plug-In . SVG Version: 6.00 Build 0)  -->
<svg version="1.1" id="Layer_1" xmlns="http://www.w3.org/2000/svg" xmlns:xlink="http://www.w3.org/1999/xlink" x="0px" y="0px"
	 viewBox="0 0 111.54 70.18" style="enable-background:new 0 0 111.54 70.18;" xml:space="preserve">
<style type="text/css">
	.st0{fill:#3154A2;}
	.st1{font-family:'ErasITC-Bold';}
	.st2{font-size:10px;}
	.st3{fill:#B0D236;}
	.st4{fill:#324EA0;}
	.st5{fill:#FFFFFF;}
	.st6{font-family:'BerlinSansFBDemi-Bold';}
	.st7{font-size:19px;}
</style>
<text transform="matrix(1 0 0 1 17.4063 45.1377)" class="st0 st1 st2">Weight</text>
<text transform="matrix(1 0 0 1 58.2616 45.1377)" class="st3 st1 st2">Loss</text>
<path class="st4" d="M79.03,37.19c0,0-4.1-3.46-0.06-5.35c0.66-0.31,1.4-0.38,2.11-0.23c1.09,0.24,2.94,0.27,3.2-2.06
	c0,0,3-3.66,4.87-0.19c0.26,0.48,0.35,1.03,0.32,1.57c-0.07,1.3,0.02,3.91,1.88,4.06c0,0,5.27,3.42-0.36,4.89
	c-0.42,0.11-0.85,0.14-1.28,0.07c-0.99-0.16-3.2-0.24-3.72,2.11c0,0-2.37,4.33-4.54,0.45c-0.32-0.58-0.46-1.24-0.38-1.9
	c0.13-1.07,0.09-2.95-1.58-3.61L79.03,37.19z"/>
<rect x="84.59" y="32.31" class="st5" width="1.78" height="6.34"/>
<rect x="82.41" y="34.39" class="st5" width="6.14" height="2.18"/>
<g>
	<text transform="matrix(1 0 0 1 15.7853 35.9922)" class="st3 st6 st7">Get</text>
</g>
</svg>
